<mxfile host="app.diagrams.net" modified="2024-03-29T21:17:15.835Z" agent="Mozilla/5.0 (X11; Linux x86_64; rv:124.0) Gecko/20100101 Firefox/124.0" version="24.2.1" etag="4tAqtzu54hNpjsIa1eWz" type="github">
  <diagram name="PÃ¡gina-1" id="700KF4gIXVRDVvoJC0Ql">
    <mxGraphModel>
      <root>
        <mxCell id="0" />
        <mxCell id="1" parent="0" />
      </root>
    </mxGraphModel>
  </diagram>
</mxfile>
